<svg width="332" height="432" viewBox="0 0 332 432" fill="none" xmlns="http://www.w3.org/2000/svg">
<rect y="282.5" width="247" height="142" rx="8" fill="#2C2B33"/>
<g clip-path="url(#clip0_147_127)">
<path d="M166.517 121.69C166.71 122.378 166.805 122.732 166.998 123.423C165.235 122.586 163.623 122.04 162.272 121.114C161.153 120.345 160.147 119.701 158.731 119.6C156.588 119.449 154.469 118.915 152.323 118.802C148.835 118.618 145.689 119.894 142.617 121.405C138.349 123.503 136.218 127.312 134.285 131.375C133.309 133.429 132.656 135.539 132.036 137.712C131.436 139.814 130.364 141.79 129.406 143.776C128.34 145.99 126.809 148.047 126.123 150.365C125.016 154.09 122.555 156.943 120.477 159.994C118.498 162.903 115.767 165.286 112.431 166.779C111.896 167.02 111.359 167.308 110.917 167.688C109.166 169.193 107.017 169.276 104.924 169.249C102.541 169.216 100.16 168.881 97.7798 168.658C97.4978 168.632 97.1653 168.557 96.9576 168.385C94.8798 166.673 92.7813 164.981 90.7749 163.188C89.3709 161.929 88.2846 160.436 88.0797 158.439C87.9729 157.388 87.5484 156.596 86.4235 156.049C83.7551 154.755 83.393 152.535 85.2511 149.944C85.8744 149.074 86.5422 148.237 86.9786 147.664C85.2748 145.872 83.4642 144.292 82.0692 142.405C80.9086 140.838 81.2292 137.555 83.7106 136.878C84.889 136.557 85.1205 136.02 84.0579 135.058C82.2948 133.462 82.4669 132.081 84.4408 130.805C85.2184 130.303 86.0436 129.876 87.0676 129.288C86.5333 128.736 86.192 128.154 85.6844 127.893C82.1048 126.056 81.7635 122.367 82.9389 119.09C83.6097 117.217 85.1175 116.724 86.6995 116.525C89.365 116.19 91.971 115.777 94.5029 114.795C97.014 113.818 99.6972 113.275 102.164 112.209C104.069 111.384 105.88 110.206 107.501 108.897C109.988 106.887 112.345 104.706 114.621 102.459C116.393 100.711 117.999 98.7903 119.608 96.8877C122.941 92.9489 126.907 89.865 131.608 87.7309C131.697 87.6923 131.813 87.7041 131.893 87.6566C135.832 85.3979 140.145 84.2907 144.54 83.3379C145.312 83.1717 146.081 82.0408 146.461 81.183C147.788 78.1674 148.933 75.0716 150.171 72.0173C151.332 69.153 152.501 66.2887 153.703 63.4393C156.054 57.8739 158.417 52.3145 160.803 46.764C162.525 42.757 164.297 38.7737 166.223 34.3659C164.867 34.9714 163.917 35.5859 162.878 35.8293C157.948 36.9779 151.48 34.6984 152.477 28.3762C152.516 28.1298 152.415 27.7766 152.249 27.5955C149.239 24.3305 148.616 20.6173 150.29 16.5628C151.026 14.7819 152.371 13.5026 154.324 12.995C155.235 12.7576 155.668 12.2916 155.917 11.2201C156.594 8.33203 157.879 5.64583 160.946 4.60994C162.599 4.05192 164.427 4.0074 166.52 3.67793C167.369 2.34818 169.046 1.57052 170.963 0.647416C173.964 -0.798087 176.49 0.582116 179.135 0.905648C181.275 1.16685 182.584 3.23864 183.783 4.97799C184.353 5.80314 184.774 6.34039 185.914 6.43537C188.288 6.6283 189.072 7.61967 189.811 10.0061C190.595 12.5469 190.589 15.0223 189.802 17.5275C189.773 17.6224 189.77 17.7679 189.707 17.8005C187.445 18.9937 188.496 20.6648 188.918 22.3745C189.47 24.5977 188.879 26.8149 187.57 28.5661C186.718 29.7059 185.261 30.6112 183.89 31.0891C181.901 31.7836 179.776 32.6058 177.597 31.4601C177.425 31.3681 176.834 31.6382 176.793 31.8222C176.704 32.2081 176.698 32.7869 176.926 33.0421C180.212 36.693 182.254 41.1275 184.566 45.3601C187.161 50.1092 189.354 55.0779 191.711 59.9546C193.509 63.6797 195.296 67.4077 197.071 71.1417C198.781 74.7362 200.529 78.3158 202.147 81.9518C203.073 84.0355 204.996 84.1779 206.768 84.6172C209.76 85.3593 212.515 86.5643 215.07 88.3037C216.81 89.488 218.694 90.4527 220.484 91.5628C221.814 92.3879 223.078 93.3229 224.402 94.157C225.548 94.8782 226.735 95.5431 227.914 96.2109C230.187 97.4991 232.425 98.8615 234.758 100.028C237.688 101.494 240.932 101.497 244.111 101.791C246.747 102.035 249.371 102.406 252 102.717C253.214 102.863 254.428 102.993 255.639 103.148C256.028 103.198 256.426 103.251 256.791 103.382C259.617 104.385 260.673 106.338 259.92 109.307C259.584 110.63 258.964 111.886 258.7 113.219C258.578 113.83 258.806 114.738 259.225 115.189C260.38 116.439 261.068 117.763 261.228 119.499C261.309 120.366 262.101 121.158 262.526 122.007C262.864 122.687 263.238 123.379 263.416 124.109C264.137 127.092 264.128 129.974 261.905 132.438C261.157 133.266 260.347 134.043 259.691 134.94C259.471 135.24 259.445 136.014 259.67 136.258C260.938 137.632 261.217 138.959 260.528 140.826C259.881 142.58 260.074 144.628 259.569 146.456C258.744 149.451 256.747 151.556 253.918 152.871C252.805 153.387 251.647 153.871 250.674 154.595C250.22 154.933 249.923 155.818 249.961 156.429C250.169 159.629 250.49 162.799 248.183 165.521C247.367 166.483 246.794 167.646 246.008 168.637C243.743 171.493 240.478 172.763 237.121 173.393C235.776 173.645 233.74 174.149 232.479 172.419C232.345 172.238 231.692 172.279 231.366 172.419C229.157 173.351 226.982 174.366 224.764 175.28C224.352 175.449 223.8 175.292 223.313 175.268C219.098 175.052 215.744 173.054 212.595 170.386C209.496 167.759 207.038 164.568 204.887 161.262C202.527 157.634 200.927 153.509 199.051 149.576C197.656 146.646 196.311 143.69 195.011 140.716C193.661 137.629 192.423 134.495 191.058 131.414C190.645 130.485 189.983 129.665 189.419 128.807C187.11 125.281 183.661 123.254 179.948 121.538C178.654 120.939 177.434 120.042 175.935 120.583C174.641 121.049 173.373 121.627 172.156 122.275C171.02 122.88 170.055 123.456 168.877 122.233C168.464 121.803 167.508 121.895 166.514 121.69H166.517ZM177.618 100.55C177.618 100.58 177.618 100.613 177.621 100.642C178.357 100.61 179.12 100.693 179.826 100.527C182.975 99.7876 186.113 98.9862 189.247 98.1848C190.574 97.8464 191.969 97.6327 193.189 97.0598C195.157 96.1338 196.994 94.9346 198.906 93.8898C201.838 92.29 202.129 91.1977 200.595 88.185C198.739 84.546 196.917 80.8892 195.198 77.1849C193.67 73.8873 192.325 70.5035 190.853 67.1792C189.384 63.8548 187.852 60.5601 186.365 57.2417C184.899 53.9737 183.554 50.6434 181.978 47.4289C180.075 43.5465 178.022 39.7383 175.965 35.9361C174.611 33.4339 174.558 33.4666 171.794 34.0662C171.459 34.1404 171.046 34.0483 170.776 34.2086C170.064 34.6331 169.102 35.01 168.788 35.669C167.835 37.6577 167.173 39.7829 166.336 41.8279C164.469 46.3989 162.519 50.9343 160.687 55.5202C159.286 59.0285 158.034 62.5963 156.68 66.1255C156.152 67.5057 155.481 68.8295 154.962 70.2126C153.638 73.7359 152.504 77.3392 151.035 80.8001C149.221 85.0654 147.138 89.2179 145.188 93.4238C144.65 94.5814 144.974 95.2047 146.229 95.6054C149.165 96.5404 152.089 97.5169 155.036 98.4133C156.612 98.8912 158.221 99.2711 159.83 99.6362C160.548 99.7995 161.299 99.8291 162.035 99.8885C165.849 100.182 169.66 100.512 173.477 100.731C174.849 100.812 176.235 100.616 177.615 100.547L177.618 100.55ZM185.166 9.89627C184.917 10.5404 184.771 10.9975 184.569 11.4249C184.071 12.4726 183.174 12.7457 182.112 12.5676C181.159 12.4073 179.814 12.7398 179.749 11.2082C179.713 10.3682 180.025 9.50743 180.212 8.6615C180.289 8.30532 180.589 7.94617 180.544 7.61967C180.248 5.36682 178.016 3.17334 175.751 3.05758C174.534 2.99525 173.246 3.0932 172.088 3.44641C171.046 3.76697 169.945 4.36655 170.503 5.93374C170.782 6.71438 170.304 7.20413 169.518 7.18928C168.743 7.17741 167.847 7.2249 167.223 6.86279C165.496 5.85954 164.012 5.93374 162.305 7.00229C160.411 8.18363 158.889 11.2438 159.776 13.0069C160.738 14.9184 160.215 15.7287 158.01 15.6219C154.89 15.4675 152.842 18.412 153.202 20.5016C153.377 21.5167 153.484 22.5852 153.899 23.5054C154.172 24.1079 154.87 24.7461 155.502 24.9212C157.502 25.4762 157.936 26.3103 156.936 28.1862C156.173 29.6169 156.309 30.8427 157.672 31.6471C158.725 32.2674 159.999 32.7097 161.213 32.8225C162.967 32.9828 164.205 31.9172 164.748 30.255C165.181 28.9223 167.479 28.3672 168.559 29.1835C169.307 29.7504 170.269 30.0502 171.171 30.3797C171.414 30.4687 171.776 30.2283 172.085 30.1363C171.963 29.7949 171.907 29.4091 171.708 29.1241C171.316 28.5632 170.841 28.0556 170.275 27.3699C170.877 27.1562 171.21 26.9069 171.402 26.99C172.406 27.4204 173.287 27.0078 173.991 26.4795C175.745 25.1586 176.947 25.7345 178.33 27.1622C179.417 28.2841 181.007 28.7739 182.572 28.0586C184.011 27.3996 184.715 26.153 184.878 24.5442C185.032 23.0305 184.347 21.8432 183.504 20.7717C182.236 19.157 182.453 18.2992 184.388 17.7679C184.833 17.6462 185.314 17.3612 185.599 17.008C186.89 15.3963 186.73 11.8434 185.16 9.8933L185.166 9.89627ZM248.908 113.981C248.822 112.456 248.053 111.47 246.931 111.301C245.565 111.096 244.328 110.607 243.028 110.268C241.006 109.746 238.946 109.259 236.875 109.099C236.002 109.031 234.975 109.725 234.206 110.319C233.995 110.482 234.283 111.945 234.64 112.094C237.441 113.26 240.318 114.246 243.167 115.302C245.016 115.988 246.631 114.655 248.412 114.697C248.602 114.7 248.807 114.139 248.911 113.981H248.908ZM113.594 113.201C113.039 113.201 112.638 113.153 112.253 113.213C111.718 113.299 111.098 113.325 110.685 113.619C107.788 115.664 104.915 117.742 102.095 119.891C101.719 120.176 101.487 120.96 101.567 121.446C101.647 121.912 102.229 122.654 102.579 122.649C103.74 122.628 105.153 122.681 106.002 122.064C108.489 120.253 110.798 118.181 113.081 116.107C113.906 115.359 114.292 114.293 113.594 113.201ZM199.651 128.695C199.588 129.273 199.389 129.799 199.514 130.232C199.912 131.627 200.41 132.999 200.912 134.364C201.274 135.349 202.165 136.385 202.022 137.27C201.669 139.422 202.898 140.386 204.432 141.033C205.005 141.277 206.142 140.867 206.661 140.374C207.273 139.793 208.131 138.938 206.985 137.869C206.285 137.216 205.652 136.385 205.272 135.51C204.438 133.583 203.821 131.562 203.034 129.612C202.806 129.048 202.31 128.591 201.936 128.086C201.889 128.134 201.838 128.181 201.791 128.229C202.013 128.813 202.233 129.401 202.497 130.102C201.476 129.597 200.687 129.205 199.651 128.692V128.695ZM125.847 115.979C125.354 116.157 124.882 116.184 124.663 116.43C123.662 117.558 122.576 118.656 121.819 119.942C121.086 121.185 121.021 122.779 119.525 123.64C119.127 123.868 118.97 124.898 119.094 125.477C119.151 125.744 120.184 126.017 120.712 125.931C122.739 125.593 124.256 124.465 125.253 122.637C125.954 121.351 126.251 119.858 127.5 118.831C127.948 118.463 128.272 117.169 128.008 116.872C127.533 116.341 126.571 116.246 125.844 115.979H125.847ZM111.125 126.279C111.754 125.952 112.279 125.819 112.609 125.486C114.048 124.047 115.909 123.064 116.922 121.132C117.399 120.218 117.634 119.176 116.66 119.018C115.69 118.861 114.502 118.454 113.576 119.535C112.558 120.725 111.321 121.734 110.323 122.942C109.816 123.56 109.415 124.432 109.388 125.204C109.376 125.528 110.46 125.887 111.125 126.279ZM209.119 126.495C208.006 126.477 206.552 128.184 206.961 129.25C207.43 130.467 208.059 131.672 208.861 132.693C209.79 133.877 211.93 133.438 212.61 132.064C213.206 130.853 210.49 126.519 209.119 126.495ZM232.505 116.938C231.621 117.347 230.722 117.641 229.962 118.149C229.24 118.63 229.454 120.108 230.187 120.568C230.888 121.01 231.579 121.47 232.253 121.954C233.043 122.521 235.797 122.034 236.21 121.173C236.409 120.755 236.622 119.956 236.438 119.802C235.206 118.79 233.871 117.905 232.508 116.935L232.505 116.938Z" fill="#2C2B33"/>
<path d="M125.203 399.022C128.581 398.093 131.317 399.696 134.149 400.506C136.826 401.272 139.37 402.501 141.961 403.557C146.022 405.214 150.305 405.745 154.614 406.229C157.921 406.6 161.207 407.152 164.498 407.645C167.116 408.036 169.719 408.544 172.349 408.85C178.295 409.541 184.255 410.093 190.2 410.791C194.489 411.292 198.748 412.07 203.043 412.48C206.273 412.788 209.541 412.75 212.791 412.788C215.726 412.824 218.665 412.851 221.594 412.711C224.536 412.569 227.468 412.195 230.407 411.954C233.823 411.672 237.254 411.506 240.662 411.135C242.725 410.91 244.764 410.42 246.8 409.989C247.928 409.752 249.026 409.387 250.139 409.081C252.597 408.413 255.055 407.748 257.515 407.078C257.8 407 258.076 406.855 258.364 406.837C260.451 406.71 260.498 406.644 259.887 404.763C256.847 405.451 253.85 406.3 250.795 406.778C246.643 407.428 242.455 407.838 238.27 408.256C236.414 408.443 234.53 408.526 232.672 408.422C230.698 408.309 228.742 407.897 226.774 407.656C226.05 407.567 225.311 407.597 224.58 407.567C220.716 407.404 216.848 407.256 212.987 407.066C210.428 406.941 207.875 406.704 205.317 406.609C202.07 406.487 198.817 406.534 195.572 406.374C191.642 406.181 187.704 405.988 183.795 405.549C176.615 404.742 169.449 403.795 162.29 402.824C158.995 402.379 155.707 401.839 152.454 401.156C149.839 400.607 147.304 399.654 144.689 399.117C141.587 398.479 138.423 398.161 135.309 397.577C132.519 397.054 129.75 396.404 127.001 395.701C126.485 395.57 126.102 394.92 125.657 394.507C125.746 394.404 125.832 394.3 125.921 394.193C128.017 394.57 130.103 395.003 132.208 395.309C135.366 395.769 138.548 396.072 141.7 396.576C144.205 396.977 146.683 397.556 149.165 398.096C151.507 398.604 153.828 399.206 156.173 399.684C158.814 400.224 161.468 400.735 164.133 401.141C167.36 401.634 170.607 401.996 173.842 402.43C176.478 402.783 179.105 403.216 181.747 403.504C183.548 403.7 185.374 403.73 187.19 403.78C188.369 403.813 189.553 403.703 190.731 403.744C198.603 404.012 206.477 404.204 214.34 404.629C218.953 404.878 223.568 404.935 228.181 405.629C231.71 406.16 235.411 405.62 239.032 405.478C240.745 405.41 242.464 405.252 244.153 404.97C247.489 404.412 250.81 403.771 254.123 403.094C255.072 402.901 255.948 402.343 256.898 402.174C257.818 402.014 258.786 402.139 260.145 402.139C260.302 400.286 260.483 398.164 260.647 396.214C258.86 396.564 257.423 396.903 255.966 397.096C255.518 397.155 254.657 396.882 254.612 396.645C254.5 396.039 254.523 395.187 254.88 394.757C256.04 393.362 257.352 392.094 258.643 390.815C261.157 388.325 263.158 385.561 263.155 381.839C263.155 379.284 262.917 376.731 262.897 374.175C262.855 369.103 260.703 364.591 259.062 359.967C258.688 358.913 257.358 358.052 256.281 357.435C254.737 356.553 253.078 355.737 251.362 355.33C248.32 354.606 245.2 354.208 242.11 353.68C238.047 352.983 233.978 352.303 229.917 351.594C226.884 351.065 223.853 350.525 220.832 349.937C220.428 349.86 220.087 349.468 219.715 349.225C220.107 349.026 220.511 348.628 220.885 348.655C224.013 348.892 227.139 349.201 230.264 349.507C232.357 349.712 234.45 349.914 236.53 350.19C237.296 350.29 238.032 350.617 238.792 350.801C239.267 350.917 239.757 350.985 240.243 351.041C242.912 351.362 245.574 351.813 248.255 351.953C251.552 352.125 254.458 353.458 257.31 354.838C259.222 355.764 261.184 356.972 262.543 358.551C263.9 360.127 264.624 362.288 265.449 364.265C266.046 365.689 266.236 367.283 266.812 368.72C268.186 372.139 268.156 375.743 268.486 379.316C268.762 382.302 268.159 385.089 267.055 387.802C266.055 390.266 264.33 392.216 262.41 394C262.086 394.3 261.7 394.531 261.273 394.846C263.321 396.009 263.98 397.71 263.974 399.577C263.962 403.813 263.93 408.06 263.594 412.275C263.383 414.946 262.65 417.582 262.048 420.212C261.956 420.61 261.344 421.01 260.887 421.179C254.975 423.358 249.139 425.739 242.855 426.792C238.471 427.525 234.159 428.692 229.798 429.585C228.555 429.841 227.252 429.835 225.975 429.915C219.003 430.36 212.031 430.912 205.053 431.197C200.321 431.39 195.572 431.245 190.832 431.156C189.321 431.126 187.816 430.77 186.306 430.6C181.948 430.111 177.582 429.677 173.231 429.14C171.827 428.965 170.459 428.508 169.066 428.217C166.541 427.686 164.015 427.151 161.477 426.671C157.796 425.97 154.113 425.296 150.423 424.652C148.322 424.284 146.191 424.068 144.104 423.64C143.059 423.426 142.083 422.883 141.068 422.512C137.752 421.295 134.517 419.669 131.095 418.992C127.551 418.291 126.224 415.489 124.241 413.281C123.671 412.646 123.561 411.435 123.552 410.485C123.502 405.407 123.508 400.325 123.588 395.247C123.612 393.703 123.938 392.166 124.125 390.628C123.965 390.693 123.805 390.759 123.644 390.824C122.985 390.304 122.38 389.687 121.656 389.283C119.789 388.236 119.338 386.229 118.272 384.632C118.043 384.288 117.135 383.982 116.841 384.157C115.345 385.063 113.754 384.505 112.238 384.555C109.344 384.656 106.438 384.514 103.538 384.413C102.22 384.368 100.908 384.062 99.5962 384.08C95.4853 384.14 91.3774 384.3 87.2694 384.416C83.6156 384.517 79.9588 384.543 76.3109 384.733C74.6071 384.822 72.9272 385.3 71.2234 385.457C68.3888 385.719 65.5453 385.864 62.7047 386.051C58.389 386.333 54.0762 386.716 49.7575 386.838C47.6115 386.897 45.4477 386.514 43.3047 386.229C42.901 386.176 42.5597 385.639 42.1917 385.327C42.628 385.232 43.1058 384.965 43.4887 385.066C46.4688 385.837 49.3865 385.048 52.3072 384.739C55.8126 384.365 59.2913 383.739 62.7908 383.317C68 382.688 73.221 382.148 78.4331 381.56C80.4812 381.329 82.5322 381.106 84.5683 380.791C84.9334 380.735 85.4707 380.299 85.53 379.963C86.0732 376.986 86.5303 373.994 87.0052 371.005C87.8215 365.859 88.5724 360.697 89.4747 355.565C89.9556 352.831 90.7778 350.16 91.2883 347.429C91.8285 344.529 92.1046 341.582 92.6388 338.679C93.3779 334.663 94.2327 330.668 95.0757 326.673C95.8563 322.971 96.4233 319.199 97.566 315.61C99.1451 310.653 100.887 305.7 103.105 301.004C104.85 297.308 107.094 293.732 109.718 290.603C112.576 287.193 116.212 284.447 119.352 281.257C122.427 278.134 126.328 276.172 129.682 273.486C137.351 267.345 146.33 263.525 154.778 258.764C155.457 258.381 156.069 257.873 156.707 257.413C157.951 256.517 159.177 255.594 160.447 254.736C160.672 254.585 161.076 254.7 161.4 254.694C161.391 255.092 161.548 255.635 161.346 255.864C160.58 256.733 159.717 257.52 158.859 258.307C158.102 259.001 157.31 259.651 156.324 260.5C157.229 260.978 157.918 261.411 158.66 261.72C163.946 263.919 169.482 265.056 175.187 265.053C177.318 265.053 179.44 264.341 181.577 264.044C182.723 263.884 183.896 263.937 185.05 263.845C185.917 263.777 186.81 263.735 187.632 263.489C189.612 262.895 191.559 262.195 193.515 261.527C193.839 261.417 194.174 261.293 194.447 261.097C197.045 259.233 199.639 257.363 202.209 255.466C202.58 255.193 202.835 254.763 203.165 254.38C202.123 253.664 201.212 253.041 200.304 252.418C200.39 252.237 200.476 252.053 200.562 251.872C201.393 252.038 202.239 252.154 203.055 252.382C205.78 253.142 208.499 253.923 211.209 254.742C212.147 255.027 213.025 255.505 213.963 255.79C217.43 256.843 220.938 257.778 224.381 258.909C226.848 259.719 229.291 260.646 231.642 261.744C234.488 263.073 237.225 264.638 240.006 266.104C241.965 267.14 244.025 268.027 245.853 269.259C249.302 271.583 252.923 273.614 256.132 276.365C259.451 279.211 261.87 282.687 264.303 286.148C266.168 288.796 267.402 291.897 268.86 294.827C270.394 297.914 272.012 300.974 273.321 304.156C274.965 308.151 276.515 312.206 277.767 316.334C278.943 320.214 279.673 324.227 280.617 328.178C281.062 330.039 281.629 331.873 282.006 333.749C282.783 337.59 283.6 341.43 284.164 345.304C284.742 349.29 284.974 353.324 285.476 357.322C286.387 364.597 287.387 371.86 288.358 379.186C291.798 379.064 295.276 378.91 298.755 378.827C301.391 378.764 304.03 378.809 306.668 378.782C310.01 378.749 313.353 378.583 316.692 378.678C319.372 378.755 322.041 379.198 324.721 379.358C325.783 379.42 326.87 379.177 327.938 379.028C328.891 378.898 329.776 378.711 330.185 379.99C330.334 380.447 331.049 380.702 331.266 381.163C331.515 381.682 331.699 382.4 331.524 382.899C331.408 383.231 330.622 383.516 330.138 383.51C325.739 383.457 321.343 383.356 316.947 383.216C315.977 383.184 315.015 382.848 314.041 382.813C312.729 382.762 311.409 382.92 310.097 382.887C308.491 382.845 306.891 382.626 305.288 382.617C302.106 382.596 298.924 382.691 295.745 382.691C291.364 382.691 286.983 382.721 282.605 382.608C278.842 382.513 275.078 382.246 271.317 382.032C270.937 382.011 270.483 381.928 270.21 381.697C269.916 381.447 269.801 380.993 269.605 380.628C269.94 380.462 270.267 380.165 270.608 380.147C273.264 380.017 275.924 379.957 278.58 379.839C279.886 379.779 281.189 379.637 282.647 379.521C282.439 377.859 282.196 376.12 282.009 374.371C281.608 370.649 281.213 366.924 280.86 363.196C280.519 359.563 280.299 355.918 279.907 352.291C279.45 348.052 278.874 343.823 278.325 339.593C278.192 338.572 277.675 338.026 276.515 338.186C273.843 338.551 271.16 339.083 268.483 339.095C265.188 339.109 261.991 339.653 258.762 340.101C258.272 340.169 257.604 339.899 257.215 339.561C256.631 339.05 256.557 338.4 257.551 338.192C259.694 337.75 261.84 337.305 263.998 336.928C266.194 336.545 268.411 336.272 270.611 335.895C272.769 335.527 274.918 335.09 277.283 334.645C276.96 333.218 276.687 332.039 276.431 330.861C275.645 327.216 275.028 323.526 274.042 319.935C272.819 315.48 271.38 311.075 269.857 306.709C269.198 304.815 268.049 303.096 267.215 301.256C266.159 298.932 265.197 296.566 264.197 294.219C264.158 294.13 264.143 294.026 264.096 293.94C262.517 291.019 261.187 287.92 259.284 285.231C257.486 282.687 255.135 280.517 252.923 278.285C251.724 277.074 250.362 276.009 248.982 274.997C247.72 274.074 246.352 273.296 245.013 272.48C243.274 271.417 241.538 270.346 239.763 269.345C237.875 268.28 235.94 267.294 234.025 266.276C232.942 265.7 231.873 265.092 230.763 264.566C228.549 263.516 226.364 262.367 224.07 261.524C220.41 260.177 216.664 259.066 212.969 257.814C210.942 257.125 208.941 256.354 206.991 255.641C205.869 257.731 204.284 259.179 202.405 260.337C200.651 261.417 198.935 262.575 197.107 263.519C193.501 265.38 189.68 266.525 185.578 266.623C184.501 266.65 183.43 266.962 182.352 266.971C177.728 267.003 173.1 267.063 168.482 266.905C167.14 266.861 165.816 266.14 164.493 265.709C163.887 265.513 163.29 265.288 162.706 265.035C160.975 264.279 159.141 263.679 157.553 262.688C155.502 261.408 154.87 261.352 152.955 262.777C151.821 263.62 150.48 264.187 149.254 264.911C146.016 266.816 142.706 268.615 139.572 270.684C135.44 273.415 131.35 276.228 127.435 279.256C124.369 281.625 121.561 284.338 118.696 286.958C116.889 288.612 115.022 290.25 113.481 292.138C111.718 294.296 110.08 296.614 108.762 299.066C107.156 302.052 105.782 305.192 104.598 308.371C103.185 312.158 101.95 316.026 100.884 319.923C100.151 322.606 99.8545 325.405 99.3291 328.145C98.5336 332.288 97.6847 336.423 96.9071 340.57C96.4915 342.787 96.1739 345.025 95.7643 347.539C98.6138 348.186 101.508 348.901 104.428 349.486C106.592 349.919 108.795 350.166 110.97 350.537C111.252 350.584 111.662 350.851 111.706 351.08C111.754 351.317 111.478 351.816 111.261 351.873C110.579 352.045 109.822 352.247 109.16 352.11C107.144 351.688 105.173 351.071 103.164 350.614C100.703 350.056 98.222 349.584 95.5002 349.026C95.3013 350.017 95.0549 351.234 94.8145 352.451C94.1259 355.966 93.2889 359.459 92.7902 363C92.0274 368.42 91.502 373.873 90.8668 379.31C90.7214 380.554 91.1785 380.919 92.4607 380.857C95.2419 380.717 98.032 380.812 100.819 380.741C101.778 380.717 102.737 380.343 103.686 380.373C105.592 380.432 107.489 380.714 109.391 380.794C110.258 380.83 111.148 380.459 112.006 380.53C113.737 380.67 115.452 380.987 116.984 381.204C116.984 377.782 116.993 374.196 116.984 370.614C116.969 366.322 117.975 362.377 120.421 358.756C123.932 353.555 129.112 351.65 134.971 351.003C136.716 350.81 138.494 350.884 140.257 350.923C140.569 350.929 140.872 351.35 141.18 351.582C140.857 351.721 140.539 351.967 140.21 351.982C134.763 352.196 129.866 354.096 125.434 357.105C124.164 357.966 123.285 359.522 122.454 360.893C121.047 363.22 120.513 365.891 120.543 368.545C120.587 372.771 120.676 377.046 121.344 381.204C121.691 383.359 123.309 385.318 124.407 387.333C124.568 387.627 125.025 387.79 125.378 387.942C128.862 389.435 132.332 388.984 135.87 388.028C138.589 387.295 141.364 386.645 144.158 386.36C146.862 386.084 149.625 386.194 152.344 386.395C153.718 386.496 155.054 387.167 156.398 387.6C159.01 388.438 161.596 389.375 164.237 390.106C165.983 390.586 167.811 391.058 169.592 391.026C171.539 390.99 173.468 390.319 175.418 390.011C177.894 389.619 180.378 389.269 182.869 388.987C185.163 388.725 187.469 388.518 189.775 388.408C190.933 388.354 192.126 388.461 193.263 388.69C196.487 389.334 199.674 390.162 202.907 390.75C204.744 391.082 206.638 391.115 208.511 391.207C209.078 391.234 209.653 390.978 210.229 390.907C212.01 390.687 213.791 390.408 215.581 390.307C220.677 390.023 225.195 392.038 229.721 393.985C229.766 394.006 229.813 394.038 229.858 394.038C232.511 393.955 235.108 395.238 237.801 394.365C238.166 394.246 238.587 394.312 238.97 394.237C240.79 393.893 242.603 393.504 244.429 393.193C244.924 393.109 245.794 393.089 245.904 393.323C246.112 393.762 246.043 394.469 245.833 394.95C244.767 397.366 242.573 398.235 240.22 398.325C237.219 398.437 234.182 398.316 231.199 397.965C227.825 397.568 224.566 396.523 221.529 394.979C219.264 393.828 216.887 394.291 214.56 394.231C211.802 394.157 209.036 394.51 206.276 394.445C203.678 394.386 201.072 394.142 198.505 393.756C196.199 393.412 193.961 392.575 191.651 392.302C189.327 392.026 186.947 392.038 184.605 392.177C182.966 392.272 181.355 392.813 179.725 393.115C177.104 393.602 174.489 394.128 171.854 394.51C169.072 394.914 166.371 394.457 163.712 393.546C160.005 392.275 156.286 391.02 152.516 389.957C151.035 389.542 149.402 389.568 147.841 389.562C143.781 389.548 139.883 390.423 135.971 391.521C132.97 392.361 129.756 392.459 126.669 391.447C125.25 390.981 125.099 391.115 125.14 392.587C125.2 394.65 125.155 396.716 125.155 399.04L125.203 399.022ZM260.098 409.152C258.073 409.773 256.358 410.369 254.603 410.815C253.526 411.088 252.365 411.04 251.285 411.304C248.542 411.972 245.862 413.053 243.084 413.394C238.077 414.008 233.022 414.287 227.982 414.552C223.363 414.792 218.736 414.822 214.112 414.946C213.23 414.97 212.343 415.077 211.467 415.018C208.781 414.834 206.1 414.599 203.42 414.356C200.915 414.13 198.413 413.896 195.914 413.617C190.639 413.032 185.368 412.438 180.099 411.803C176.748 411.399 173.406 410.933 170.064 410.467C166.425 409.96 162.789 409.423 159.153 408.897C158.862 408.856 158.568 408.82 158.277 408.767C155.888 408.333 153.495 407.927 151.112 407.455C148.435 406.923 145.677 406.6 143.116 405.715C138.209 404.026 133.422 401.999 128.578 400.129C126.642 399.381 125.461 399.728 125.431 401.1C125.41 402.112 125.675 403.13 125.823 404.145C125.957 405.068 126.075 405.997 126.253 406.911C126.55 408.446 126.455 410.292 127.301 411.435C129.231 414.044 131.608 416.288 134.915 417.282C137.72 418.125 140.456 419.197 143.237 420.12C144.045 420.387 144.917 420.452 145.745 420.669C147.972 421.245 150.162 422.022 152.418 422.399C155.107 422.848 157.856 422.949 160.575 423.233C161.943 423.376 163.338 423.465 164.662 423.806C167.547 424.551 170.349 425.721 173.269 426.216C178.885 427.169 184.563 427.778 190.215 428.523C191.218 428.656 192.224 428.888 193.224 428.867C196.065 428.808 198.906 428.653 201.743 428.511C202.776 428.457 203.806 428.268 204.839 428.241C207.982 428.161 211.126 428.143 214.269 428.075C215.542 428.048 216.819 428.015 218.083 427.873C220.078 427.647 222.054 427.122 224.049 427.086C228.107 427.012 232.01 426.264 235.919 425.246C240.187 424.136 244.559 423.432 248.827 422.325C251.849 421.542 254.785 420.411 257.732 419.36C258.237 419.182 258.922 418.677 258.987 418.241C259.433 415.261 259.738 412.26 260.101 409.149L260.098 409.152Z" fill="#2C2B33"/>
<path d="M195.436 241.509C195.566 243.851 195.706 245.911 195.783 247.974C195.813 248.737 195.937 249.675 194.768 249.764C193.735 249.844 192.643 248.936 192.663 247.923C192.702 246.116 192.853 244.308 192.972 242.281C191.817 241.978 190.553 242.566 189.425 243.032C185.433 244.679 181.203 244.471 177.054 244.795C174.37 245.003 171.655 244.866 168.956 244.804C167.395 244.768 165.837 244.543 164.276 244.46C162.901 244.385 162.593 244.854 162.955 246.148C163.353 247.567 163.703 249.001 164.014 250.44C164.086 250.767 164.032 251.292 163.822 251.464C163.569 251.672 162.955 251.776 162.729 251.61C162.159 251.185 161.453 250.663 161.278 250.046C160.859 248.588 160.741 247.048 160.459 245.549C160.26 244.501 160.212 243.587 158.547 243.557C156.544 243.522 154.555 242.812 152.557 242.406C150.545 241.996 148.497 241.723 146.526 241.165C144.57 240.613 142.691 239.791 140.783 239.072C140.322 238.9 139.895 238.55 139.429 238.508C136.072 238.197 133.329 236.457 130.545 234.795C130.243 234.614 129.83 234.62 129.465 234.546C129.156 234.484 128.773 234.531 128.545 234.365C125.128 231.86 121.626 229.512 118.598 226.463C117.076 224.932 115.526 223.427 114.407 221.64C112.882 219.206 111.653 216.579 110.43 213.973C109.64 212.287 108.922 210.53 108.48 208.729C107.901 206.369 107.506 203.947 107.251 201.528C106.838 197.565 106.405 193.591 106.346 189.614C106.283 185.304 106.607 180.985 106.838 176.675C106.898 175.571 107.224 174.473 107.491 173.389C107.557 173.125 107.874 172.92 108.076 172.689C108.325 172.953 108.676 173.179 108.794 173.49C108.925 173.835 108.86 174.259 108.851 174.645C108.789 177.352 108.596 180.065 108.679 182.766C108.806 186.987 108.964 191.216 109.4 195.41C109.721 198.518 110.477 201.584 111.092 204.656C111.38 206.096 111.846 207.5 112.125 208.939C112.834 212.626 115.256 215.469 116.844 218.725C116.865 218.77 116.927 218.8 116.933 218.841C117.28 221.168 120.032 221.851 120.534 224.086C120.575 224.273 120.866 224.499 121.071 224.534C122.772 224.825 123.629 226.259 124.811 227.244C126.737 228.856 128.747 230.364 131.053 231.367C134.386 232.818 137.808 234.062 141.127 235.543C145.066 237.303 149.272 237.927 153.421 238.891C157.108 239.746 160.853 239.954 164.531 240.634C169.262 241.509 173.958 240.999 178.671 241.022C179.511 241.025 180.351 240.984 181.191 240.919C186.905 240.479 192.654 240.209 198.086 238.128C199.069 237.751 199.906 237.006 200.838 236.481C201.853 235.908 202.909 235.401 203.936 234.849C205.364 234.08 206.958 233.504 208.175 232.48C211.105 230.022 214.002 227.488 216.631 224.718C218.35 222.905 219.588 220.631 221.018 218.55C221.401 217.992 221.787 217.416 222.036 216.793C222.945 214.52 223.838 212.234 224.654 209.925C225.094 208.681 225.925 208.162 227.254 208.556C228.56 208.942 228.35 209.928 228.05 210.848C226.504 215.609 224.322 220.073 221.3 224.056C220.018 225.745 218.329 227.134 216.759 228.589C215.035 230.186 213.236 231.699 211.467 233.246C211.17 233.504 210.891 233.801 210.553 233.988C207.199 235.858 203.871 237.775 200.458 239.532C198.84 240.366 197.056 240.88 195.447 241.5L195.436 241.509Z" fill="#2C2B33"/>
<path d="M141.786 210.628C141.341 210.628 140.896 210.611 140.45 210.631C138.762 210.717 137.951 211.531 137.821 213.202C137.542 216.752 139.417 219.18 142.27 220.711C144.078 221.682 146.259 221.97 148.298 222.46C148.556 222.522 149.245 221.97 149.254 221.688C149.302 220.278 149.094 218.856 149.156 217.446C149.23 215.778 149.382 214.098 149.705 212.466C149.966 211.151 149.631 210.462 148.375 209.964C147.63 209.667 146.194 209.628 146.716 208.278C146.835 207.969 148.319 207.939 149.055 208.165C152.46 209.207 155.941 209.177 159.435 209.159C160.714 209.153 162.02 209.397 163.264 209.21C166.193 208.77 169.105 208.183 172.008 207.571C175.116 206.918 178.268 206.378 181.281 205.413C184.501 204.38 187.713 204.158 191.031 204.377C193.955 204.573 197 208.01 197.238 210.907C197.526 214.401 195.552 216.437 193.136 218.227C191.871 219.165 190.34 219.741 188.942 220.504C188.06 220.984 187.256 221.658 186.327 221.985C182.643 223.276 178.998 224.81 175.202 225.597C170.984 226.47 166.576 226.392 162.329 227.164C158.259 227.903 154.386 226.915 150.432 226.573C148.319 226.392 146.158 226.235 144.128 225.668C140.1 224.543 136.36 222.676 134.36 218.797C133.38 216.897 133.143 214.632 133.624 212.332C133.965 210.703 134.232 209.26 136.007 208.708C138.275 208.002 140.572 207.467 142.947 208.183C143.748 208.423 144.529 208.741 145.294 209.082C145.559 209.201 145.737 209.506 145.956 209.723C145.698 209.975 145.464 210.406 145.176 210.444C144.057 210.602 142.92 210.631 141.792 210.712C141.792 210.682 141.792 210.655 141.789 210.625L141.786 210.628ZM152.05 211.258C152.382 215.265 152.715 219.26 153.041 223.187C154.683 223.463 156.131 223.935 157.568 223.896C160.506 223.819 163.436 223.448 166.372 223.249C167.203 223.193 167.301 222.84 167.244 222.1C167.025 219.212 166.87 216.318 166.71 213.427C166.6 211.421 166.52 211.347 164.445 211.673C164.249 211.703 164.05 211.73 163.854 211.721C160.031 211.572 156.211 211.421 152.047 211.258H152.05ZM173.504 210.406C173.492 210.352 173.483 210.299 173.471 210.243C172.035 210.483 170.592 210.685 169.168 210.982C168.25 211.175 168.054 211.845 168.319 212.691C168.509 213.3 168.746 213.899 168.865 214.52C169.328 216.971 169.729 219.435 170.209 221.881C170.343 222.561 170.723 222.973 171.607 222.7C174.216 221.899 176.846 221.157 179.482 220.45C181.453 219.922 182.052 219.278 181.764 217.868C181.251 215.375 180.755 212.881 180.266 210.382C180.046 209.266 179.642 208.779 178.342 209.236C176.787 209.785 175.122 210.026 173.504 210.4V210.406ZM187.87 206.924C186 207.239 184.522 207.405 183.097 207.779C182.705 207.883 182.124 208.741 182.23 209.035C183.201 211.7 184.273 214.336 185.415 216.933C185.576 217.295 186.457 217.731 186.721 217.592C188.407 216.701 190.141 215.814 191.613 214.624C193.397 213.184 193.361 209.26 191.622 208.292C190.387 207.604 188.939 207.301 187.867 206.924H187.87Z" fill="#2C2B33"/>
<path d="M206.825 336.984C206.115 337.408 205.584 337.634 205.168 337.993C204.45 338.61 203.821 339.332 203.117 339.97C201.461 341.469 197.715 340.798 196.849 338.741C196.531 337.984 196.495 336.868 196.813 336.12C198.009 333.297 199.698 330.825 202.224 328.925C203.275 328.136 203.758 326.565 204.827 325.826C206.145 324.915 207.804 324.497 209.315 323.864C209.612 323.74 210.006 323.698 210.188 323.479C210.766 322.775 210.179 319.828 209.404 319.282C208.08 318.35 207.558 316.839 208.315 315.459C209.282 313.695 210.386 311.998 211.544 310.35C211.746 310.062 212.55 310.003 212.99 310.131C213.414 310.252 213.853 310.686 214.073 311.098C215.352 313.482 215.747 316.034 215.204 318.682C215.133 319.023 214.518 319.43 214.109 319.492C212.992 319.662 212.63 320.157 212.5 321.318C212.212 323.859 212.259 323.651 214.156 325.206C215.373 326.203 216.516 327.765 216.854 329.264C217.555 332.362 217.973 335.586 217.997 338.759C218.029 342.674 217.546 346.595 217.287 350.513C217.255 351.005 217.252 351.501 217.207 351.991C217.118 352.994 217.534 353.193 218.522 353.151C220.03 353.086 221.571 353.19 223.058 353.451C223.595 353.546 224.26 354.205 224.453 354.754C224.99 356.292 224.595 357.776 224.138 359.355C223.23 362.492 220.463 362.721 218.148 363.564C214.874 364.757 211.41 364.576 207.979 364.448C206.747 364.404 205.51 364.416 204.278 364.416C202.218 364.416 200.701 363.466 199.651 361.744C199.015 360.703 200.072 357.307 201.345 356.612C202.393 356.039 203.566 355.689 204.685 355.247C205.397 354.965 206.189 354.9 206.237 353.784C206.451 348.904 206.753 344.03 206.997 339.154C207.026 338.539 206.902 337.913 206.825 336.99V336.984ZM215.334 337.177C214.931 334.639 214.539 331.917 214.049 329.213C213.773 327.69 211.497 326.162 209.986 326.257C209.422 326.292 208.772 326.194 208.288 325.924C207.46 325.464 207.205 325.746 206.7 326.459C205.343 328.379 203.741 330.124 202.355 332.024C201.295 333.475 200.351 335.025 199.49 336.604C199.265 337.016 199.339 337.928 199.648 338.222C200.244 338.788 201.04 339.056 201.88 338.302C203.043 337.26 204.248 336.224 205.566 335.396C207.344 334.283 209.401 335.351 209.54 337.447C209.665 339.343 209.567 341.255 209.549 343.161C209.514 347.141 209.44 351.124 209.451 355.105C209.451 355.983 209.25 356.574 208.377 356.758C207.27 356.992 206.151 357.156 205.038 357.354C203.592 357.616 202.147 359.049 202.2 360.162C202.251 361.219 203.604 362.142 205.29 362.127C207.792 362.106 210.303 362.101 212.797 361.899C214.779 361.738 216.744 361.317 218.712 360.979C221.107 360.569 222.182 357.895 222.004 356.188C221.912 355.306 221.532 354.926 220.541 354.986C218.935 355.084 217.314 355.03 215.702 354.953C214.616 354.9 214.153 354.086 214.111 353.131C214.052 351.756 214.055 350.37 214.177 349.002C214.515 345.134 214.925 341.273 215.331 337.174L215.334 337.177ZM212.197 313.704C211.971 313.69 211.746 313.675 211.52 313.66C211.099 314.996 210.677 316.328 210.202 317.83H212.889C212.645 316.37 212.42 315.037 212.197 313.704Z" fill="#2C2B33"/>
<path d="M165.499 334.084C165.594 333.558 165.546 332.947 165.804 332.517C167.686 329.353 170.408 327.319 173.887 326.002C178.458 324.268 182.972 324.473 187.413 325.966C190.488 326.999 192.206 329.602 193.088 332.695C194.251 336.776 193.23 340.46 190.725 343.695C188.778 346.209 186.531 348.488 184.442 350.893C183.812 351.617 183.26 352.412 182.376 353.558C184.225 353.558 185.611 353.499 186.988 353.579C187.994 353.638 189.027 353.766 189.989 354.063C193.524 355.152 193.263 358.708 191.547 360.777C189.879 362.789 187.618 363.911 184.836 363.786C182.076 363.662 179.301 363.786 176.54 363.644C173.741 363.499 170.904 363.398 168.176 362.837C165.03 362.19 161.59 359.408 163.296 355.087C164.406 352.276 166.11 350.139 168.499 348.349C171.812 345.868 175.35 343.627 177.814 340.151C178.722 338.872 179.47 337.64 179.405 335.975C179.36 334.879 178.713 334.378 177.944 334.621C176.246 335.158 174.51 335.782 173.026 336.743C170.337 338.483 168.642 339.335 166.437 337.954C165.876 337.604 165.582 336.823 165.166 336.239C165.309 336.105 165.451 335.972 165.594 335.835C165.962 336.084 166.359 336.298 166.692 336.589C167.814 337.574 169.12 337.747 170.082 336.69C172.337 334.211 175.306 333.33 178.395 332.644C179.645 332.368 181.803 334.396 181.916 336.123C181.975 337.013 181.806 338.005 181.447 338.821C179.957 342.202 177.511 344.757 174.519 346.921C172.222 348.583 170.082 350.495 168.022 352.451C165.938 354.428 165.475 356.728 166.389 358.743C167.164 360.453 168.781 360.762 170.304 360.931C173.314 361.263 176.356 361.578 179.375 361.498C181.895 361.433 184.406 360.818 186.914 360.397C188.184 360.183 188.793 359.236 189.146 358.093C189.499 356.954 189.024 356.262 187.819 356.238C184.629 356.176 181.438 356.179 178.25 356.072C177.591 356.051 176.947 355.665 176.294 355.449C176.609 354.825 176.801 354.089 177.256 353.597C179.022 351.682 180.915 349.886 182.678 347.969C184.554 345.927 186.424 343.87 188.14 341.694C191.313 337.669 191.141 334.321 189.119 329.839C188.734 328.985 187.57 328.32 186.617 327.904C182.735 326.215 178.698 326.197 174.777 327.613C172.245 328.527 169.975 330.044 168.206 332.193C167.567 332.971 166.763 333.609 166.036 334.312C165.858 334.235 165.683 334.161 165.505 334.084H165.499Z" fill="#2C2B33"/>
<path d="M195.795 373.451C193.322 373.214 190.853 372.914 188.377 372.75C185.668 372.572 182.91 372.768 180.248 372.338C177.852 371.949 175.395 372.599 173.02 371.569C171.987 371.121 170.58 371.637 169.375 371.474C164.712 370.836 160.067 370.07 155.404 369.414C151.649 368.886 147.838 368.663 144.134 367.909C140.979 367.265 137.936 366.066 134.849 365.096C133.923 364.805 132.994 364.505 132.113 364.107C131.73 363.935 131.466 363.505 131.145 363.19C131.552 363.047 132.012 362.703 132.359 362.795C134.541 363.371 136.678 364.113 138.865 364.668C141.029 365.217 143.211 365.749 145.419 366.045C151.587 366.876 157.764 367.645 163.949 368.307C167.511 368.69 171.094 368.856 174.673 369.052C178.01 369.236 181.352 369.293 184.688 369.491C186.279 369.586 187.852 369.91 189.44 370.07C189.853 370.112 190.289 369.928 190.716 369.848C191.096 369.776 191.485 369.616 191.856 369.649C196.35 370.043 200.835 370.59 205.338 370.848C209.564 371.091 213.812 371.21 218.041 371.065C222.093 370.922 226.133 370.376 230.175 369.99C231.553 369.859 232.945 369.767 234.295 369.488C236.352 369.064 238.415 368.601 240.41 367.951C243.215 367.037 245.954 365.927 248.729 364.923C249.857 364.517 251.006 363.887 252.152 363.876C253.208 363.864 254.452 364.318 255.283 364.98C256.088 365.624 254.544 367.651 253.292 367.987C250.872 368.637 248.507 369.494 246.112 370.245C243.918 370.931 241.739 371.682 239.51 372.234C237.474 372.736 235.387 373.053 233.31 373.368C231.618 373.623 229.914 373.798 228.207 373.935C226.34 374.086 224.468 374.196 222.592 374.246C221.17 374.285 219.745 374.151 218.323 374.175C214.934 374.232 211.541 374.487 208.16 374.38C204.42 374.261 200.689 373.825 196.955 373.525C196.57 373.495 196.19 373.433 195.807 373.386C195.804 373.406 195.801 373.427 195.798 373.451H195.795Z" fill="#2C2B33"/>
<path d="M137.728 173.022C137.378 175.812 137.182 177.958 136.82 180.077C136.381 182.66 134.276 184.693 131.727 185.191C129.821 185.565 128.533 184.785 127.684 183.054C126.206 180.036 126.218 176.836 126.446 173.636C126.654 170.754 127.031 167.878 127.515 165.031C127.723 163.812 128.254 162.595 128.88 161.514C129.667 160.155 133.802 159.873 134.763 161.369C135.265 162.152 135.971 162.918 136.143 163.779C136.799 167.029 137.274 170.318 137.725 173.025L137.728 173.022Z" fill="#2C2B33"/>
<path d="M198.653 175.678C198.469 177.382 198.953 179.395 197.08 180.796C194.299 182.876 190.616 183.298 188.885 179.255C186.751 174.268 186.6 169.145 187.73 163.921C188.096 162.23 187.941 160.282 189.746 159.238C190.286 158.923 190.963 158.665 191.571 158.677C193.904 158.715 194.991 159.935 195.825 162.215C197.344 166.367 198.276 170.57 198.653 174.936C198.671 175.132 198.653 175.331 198.653 175.678Z" fill="#2C2B33"/>
<path d="M103.823 183.683C102.573 183.541 101.665 183.398 100.754 183.351C100.184 183.321 99.5339 183.277 99.0412 183.505C97.284 184.322 95.7791 185.384 94.675 187.123C91.505 192.119 92.06 196.978 94.7937 201.872C95.1321 202.475 95.5684 203.048 95.7732 203.695C96.8388 207.043 99.6556 208.669 102.392 210.254C103.357 210.813 104.776 210.56 105.972 210.768C106.399 210.842 106.782 211.175 107.186 211.391C106.865 211.724 106.604 212.184 106.215 212.365C104.975 212.947 103.722 213.692 102.404 213.861C101.383 213.991 100.214 213.475 99.1955 213.039C97.1593 212.166 95.1083 211.181 93.8469 209.269C92.7189 207.553 91.8433 205.672 90.8371 203.876C88.893 200.406 88.0619 196.723 88.5457 192.748C89.1423 187.863 91.5168 184.25 96.0018 182.081C98.4119 180.914 102.312 181.523 103.817 183.68L103.823 183.683Z" fill="#2C2B33"/>
<path d="M246.827 174.708C247.225 175.174 247.72 175.586 248.005 176.112C249.041 178.011 250.338 179.857 250.905 181.899C251.413 183.722 251.466 185.865 251.027 187.702C250.442 190.148 249.222 192.445 248.21 194.778C246.72 198.216 244.081 200.753 241.339 203.152C239.608 204.665 237.812 206.194 235.803 207.263C234.515 207.948 232.79 207.901 231.253 207.993C230.793 208.019 230.027 207.506 229.873 207.07C229.591 206.283 229.974 205.615 230.831 205.17C232.799 204.155 234.832 203.199 236.613 201.908C240.074 199.397 243.078 196.441 245.47 192.799C246.907 190.611 247.723 188.254 248.554 185.871C248.842 185.04 248.789 183.98 248.569 183.105C247.987 180.789 247.225 178.519 246.548 176.224C246.426 175.806 246.382 175.364 246.301 174.933L246.83 174.705L246.827 174.708Z" fill="#2C2B33"/>
<path d="M252 344.939C251.715 340.374 251.543 335.8 251.113 331.247C250.721 327.097 250.047 322.974 249.51 318.84C249.403 318.017 249.276 317.183 249.314 316.364C249.338 315.857 249.664 315.367 249.851 314.868C250.211 315.218 250.792 315.515 250.893 315.928C251.638 319.03 252.425 322.134 252.935 325.281C253.674 329.834 254.182 334.425 254.814 338.996C255.09 340.997 255.47 342.986 255.734 344.986C255.889 346.15 256.111 347.367 255.087 348.325C254.39 348.978 253.66 349.165 253.14 348.216C252.591 347.218 252.199 346.135 251.739 345.087C251.825 345.04 251.911 344.989 252 344.942V344.939Z" fill="#2C2B33"/>
<path d="M308.417 132.381C308.161 132.868 308.019 133.23 307.802 133.542C306.689 135.154 305.434 136.682 304.472 138.38C303.768 139.618 302.602 139.926 301.542 139.965C301.011 139.983 300.23 138.864 299.925 138.113C299.257 136.468 297.654 136.124 296.389 135.465C294.371 134.414 294.071 133.479 295.826 131.704C296.229 131.298 296.529 130.79 296.909 130.36C297.657 129.517 298.132 128.342 299.631 128.448C299.945 128.472 300.334 127.754 300.649 127.347C301.002 126.893 301.367 125.985 301.634 126.017C302.237 126.092 302.851 126.552 303.335 126.991C304.481 128.027 305.579 129.119 306.645 130.235C307.277 130.897 307.814 131.651 308.414 132.387L308.417 132.381ZM302.026 135.341C302.922 134.581 303.843 133.8 304.783 133.002C303.368 131.476 302.275 130.301 301.088 129.018C300.438 130.117 299.764 131.135 299.239 132.221C299.102 132.503 299.31 133.138 299.574 133.387C300.275 134.058 301.088 134.61 302.026 135.338V135.341Z" fill="#2C2B33"/>
<path d="M96.4263 93.6021C95.9009 93.1035 95.3548 92.8156 95.1767 92.3763C94.4673 90.6162 93.0723 89.88 91.3537 89.4972C90.9114 89.3992 90.5137 89.1083 90.0981 88.9065C90.3326 88.4583 90.4721 87.9032 90.8194 87.5738C92.535 85.9561 94.31 84.3978 96.0582 82.8158C96.7202 82.2162 97.3316 81.9728 98.0855 82.7445C99.2431 83.9288 100.49 85.0271 101.665 86.1936C102.508 87.0276 102.036 87.7875 101.291 88.2713C99.721 89.2894 98.51 90.4945 98.0172 92.3911C97.9015 92.8334 97.1179 93.1005 96.4263 93.6021ZM94.12 88.2624C94.6187 88.3989 95.0669 88.4494 95.4468 88.6393C96.7825 89.3102 97.5216 88.4197 98.133 87.5322C98.3289 87.2502 98.133 86.5023 97.8688 86.149C97.5601 85.7335 96.6578 85.1785 96.5777 85.2556C95.6783 86.1372 94.2328 86.6269 94.123 88.2594L94.12 88.2624Z" fill="#2C2B33"/>
<path d="M127.26 320.247C127.432 320.54 127.726 320.825 127.752 321.134C127.916 323.12 128.097 325.108 128.129 327.097C128.195 331.238 128.195 335.381 128.171 339.525C128.159 341.745 128.031 343.965 127.984 346.186C127.96 347.201 127.45 347.503 126.485 347.575C125.396 347.655 125.155 347.002 125.179 346.233C125.259 343.571 125.387 340.905 125.565 338.249C125.874 333.6 126.256 328.955 126.562 324.304C126.648 323.01 126.574 321.707 126.574 320.407C126.803 320.356 127.034 320.303 127.263 320.252L127.26 320.247Z" fill="#2C2B33"/>
<path d="M285.075 108.986C285.152 113.186 281.4 114.768 278.298 113.53C274.318 111.942 273.873 109.912 276.808 106.644C278.331 104.949 279.723 104.869 282.024 105.504C283.988 106.047 285.004 107 285.078 108.983L285.075 108.986ZM278.31 109.137C278.31 111.114 278.747 111.636 280.145 111.639C281.207 111.639 282.11 110.422 282.116 108.98C282.119 108.214 280.703 107.285 279.545 107.356C278.153 107.439 278.346 108.52 278.31 109.137Z" fill="#2C2B33"/>
<path d="M234.233 68.3814C235.387 68.1736 236.346 67.9361 237.32 67.856C237.676 67.8263 238.062 68.1706 238.433 68.3457C238.198 68.6544 238.029 69.0937 237.72 69.2451C237.109 69.5419 236.417 69.8595 235.767 69.8417C234.515 69.809 234.256 70.4888 234.227 71.489C234.2 72.4151 234.161 73.3442 234.15 74.2702C234.138 75.3625 233.378 75.6564 232.514 75.8463C231.547 76.0571 231.143 75.6949 231.205 74.6798C231.265 73.6944 231.152 72.703 231.196 71.7176C231.244 70.6164 230.739 70.2157 229.688 70.2335C228.305 70.2543 226.919 70.2543 225.542 70.1504C225.103 70.1177 224.693 69.7289 224.269 69.5033C224.72 69.2629 225.159 68.8592 225.628 68.8147C226.946 68.693 228.279 68.6782 229.602 68.699C230.879 68.7197 231.217 68.0281 231.187 66.9151C231.158 65.7812 231.223 64.6414 231.155 63.5076C231.101 62.6172 231.362 62.0057 232.295 61.9642C233.176 61.9256 233.85 62.3352 233.924 63.3087C234.049 64.9205 234.126 66.5381 234.236 68.3814H234.233Z" fill="#2C2B33"/>
<path d="M139.975 47.3901C140.631 47.8532 141.053 48.0817 141.388 48.3993C142.228 49.2037 142.997 50.0912 143.861 50.8688C144.496 51.4417 144.799 52.2045 143.947 52.4924C141.596 53.2879 140.833 55.3508 139.759 57.197C139.563 57.5354 139.438 57.9331 139.183 58.2151C138.322 59.159 137.527 59.0106 136.889 57.9153C136.176 56.6894 135.678 55.3567 133.977 54.9145C132.68 54.5791 132.692 53.7391 133.656 52.7477C134.544 51.8365 135.253 50.7264 136.218 49.919C137.363 48.9603 138.702 48.2301 139.972 47.3901H139.975ZM138.444 49.6371C137.734 50.6611 136.779 52.0353 135.829 53.4007C136.621 53.8044 137.556 54.68 138.31 54.5464C139.07 54.4128 139.655 53.2731 140.317 52.5755C140.349 52.5399 140.382 52.5013 140.421 52.4717C141.044 51.9641 140.946 51.4773 140.358 51.0321C139.673 50.5127 138.969 50.017 138.444 49.6311V49.6371Z" fill="#2C2B33"/>
<path d="M269.24 159.638C268.747 159.638 268.222 159.742 267.771 159.609C267.305 159.472 266.91 159.098 266.485 158.828C266.922 158.51 267.319 158.035 267.803 157.914C268.738 157.679 269.721 157.578 270.685 157.546C271.727 157.513 272.033 156.913 272.113 156.035C272.128 155.886 272.11 155.714 272.181 155.599C272.585 154.946 273.001 153.776 273.434 153.767C274.66 153.743 274.399 154.96 274.304 155.699C274.134 157.05 274.695 157.296 275.88 157.213C276.696 157.157 277.978 156.91 277.934 158.151C277.916 158.653 276.642 159.416 275.874 159.508C274.704 159.647 274.422 160.03 274.666 161.093C274.862 161.947 275.025 162.817 275.102 163.69C275.158 164.334 275.357 165.156 274.274 165.236C273.268 165.31 271.974 164.479 271.941 163.675C271.905 162.838 271.893 161.992 271.982 161.164C272.116 159.929 271.727 159.377 270.421 159.668C270.047 159.751 269.638 159.68 269.243 159.68V159.629L269.24 159.638Z" fill="#2C2B33"/>
<path d="M179.88 321.502C179.993 321.024 180.096 320.644 180.174 320.258C180.361 319.329 180.473 318.632 179.114 318.329C178.339 318.157 177.194 317.062 177.223 316.426C177.277 315.266 178.042 314.123 178.583 313.007C178.713 312.74 179.173 312.654 179.396 312.404C180.061 311.656 180.64 310.825 181.868 311.354C183.189 311.924 184.427 312.517 184.285 314.286C184.267 314.524 184.356 314.773 184.409 315.013C184.875 317.139 184.67 317.652 182.652 318.347C181.634 318.697 181.334 319.261 181.506 320.22C181.655 321.045 181.865 321.861 181.955 322.692C181.993 323.057 181.794 323.449 181.702 323.829C181.257 323.648 180.628 323.586 180.411 323.256C180.079 322.749 180.034 322.054 179.883 321.502H179.88ZM181.002 313.313C180.429 314.013 179.948 314.402 179.749 314.904C179.577 315.334 179.527 316.112 179.782 316.346C180.144 316.679 180.833 316.655 181.385 316.782C181.483 316.296 181.693 315.794 181.646 315.322C181.589 314.767 181.31 314.233 181.002 313.313Z" fill="#2C2B33"/>
<path d="M65.9044 117.119C63.0639 117 61.8024 115.87 61.933 113.566C62.0369 111.732 64.3075 109.289 65.8243 109.378C68.6203 109.544 70.2795 111.218 70.14 113.738C70.0539 115.329 67.715 117.193 65.9044 117.119ZM66.5396 111.518C66.3437 111.527 66.1448 111.539 65.9489 111.548C65.6284 112.076 65.0169 112.628 65.0585 113.124C65.1149 113.824 65.1535 115.032 66.3675 114.789C66.872 114.688 67.6289 113.905 67.5933 113.492C67.531 112.806 66.9225 112.171 66.5426 111.515L66.5396 111.518Z" fill="#2C2B33"/>
<path d="M43.4561 142.425C43.4739 140.775 42.8061 139.781 41.2686 139.288C39.6628 138.772 39.6925 138.353 40.7373 137.044C41.5802 135.984 42.1412 134.702 42.8388 133.527C43.8925 131.755 44.7799 131.731 46.0563 133.381C46.6796 134.186 47.4276 134.895 48.042 135.705C48.5169 136.329 48.8731 136.789 47.8936 137.611C46.9259 138.427 46.4124 139.852 45.8722 141.084C45.3291 142.327 45.1064 142.553 43.4561 142.422V142.425ZM44.5751 135.171C43.9073 136.403 43.4146 137.204 43.0643 138.065C43.0139 138.19 43.8539 138.846 43.8836 138.819C44.492 138.264 45.1717 137.712 45.5398 137.003C45.6793 136.732 45.0738 136.076 44.5751 135.171Z" fill="#2C2B33"/>
<path d="M68.0892 156.75C66.1213 156.833 65.6998 156.441 65.6315 154.69C65.5573 152.793 65.495 152.755 63.5597 152.811C62.6752 152.838 61.7818 152.835 60.9091 152.713C60.5886 152.669 60.3214 152.244 60.0276 151.992C60.3274 151.734 60.6034 151.286 60.9299 151.25C62.1528 151.113 63.3876 151.105 64.6194 151.054C65.5573 151.016 65.961 150.579 65.771 149.618C65.6464 148.991 65.4861 148.344 65.5365 147.721C65.5721 147.293 65.9432 146.896 66.1628 146.486C66.6229 146.765 67.3115 146.943 67.4866 147.347C67.7419 147.943 67.6885 148.7 67.6647 149.383C67.6202 150.526 68.1485 151.013 69.2527 150.977C69.9413 150.953 70.6507 150.852 71.3156 150.977C71.6747 151.045 72.1942 151.493 72.2149 151.802C72.2387 152.137 71.8202 152.755 71.5115 152.817C70.713 152.975 69.8434 153.016 69.0419 152.874C67.8191 152.657 67.6796 153.164 67.8517 154.174C67.9972 155.02 68.0179 155.889 68.0951 156.75H68.0892Z" fill="#2C2B33"/>
<path d="M159.23 352.516C155.642 352.219 152.053 351.928 148.467 351.625C148.18 351.602 147.853 351.581 147.622 351.438C147.277 351.222 147.004 350.898 146.701 350.619C147.075 350.391 147.446 349.972 147.826 349.96C149.779 349.91 151.738 350.008 153.691 349.975C156.292 349.931 158.892 349.797 161.492 349.744C162.011 349.732 162.59 349.803 163.038 350.035C163.433 350.239 163.679 350.726 163.991 351.088C163.543 351.462 163.133 352.089 162.641 352.163C161.533 352.326 160.385 352.213 159.254 352.213L159.239 352.516H159.23Z" fill="#2C2B33"/>
<path d="M101.039 61.2219C102.021 61.1032 102.799 60.9192 103.568 60.9488C103.969 60.9637 104.354 61.3495 104.746 61.5692C104.449 61.9551 104.23 62.4804 103.838 62.6912C103.339 62.9583 102.71 63.0236 102.128 63.08C101.259 63.1631 100.944 63.5757 100.997 64.4424C101.06 65.4605 101.012 66.4845 101.012 67.5204C99.1601 68.1467 98.5902 67.743 98.6406 65.8018C98.6496 65.505 98.6525 65.2052 98.7089 64.9173C98.9167 63.8606 98.5249 63.4154 97.4237 63.3026C96.3967 63.1987 95.3964 62.8307 94.3843 62.5784L94.4318 61.9343C95.4647 61.8155 96.4976 61.5989 97.5305 61.6048C98.5338 61.6107 99.0146 61.2635 99.0057 60.2602C99.0057 60.1148 99.0057 59.9486 99.071 59.8239C99.3946 59.1798 99.7389 58.5476 100.077 57.9094C100.282 58.5298 100.499 59.1442 100.683 59.7675C100.819 60.2276 100.914 60.7025 101.039 61.2189V61.2219Z" fill="#2C2B33"/>
<path d="M194.094 348.821C197 348.679 199.909 348.536 202.815 348.397C202.865 348.397 202.924 348.382 202.96 348.406C203.726 348.869 205.008 349.222 205.139 349.827C205.4 351.032 204.055 351.032 203.245 351.083C202.043 351.157 200.823 350.979 199.612 350.929C198.591 350.887 197.567 350.902 196.549 350.839C194.851 350.733 193.153 350.587 191.455 350.454C190.773 350.4 190.072 350.409 189.41 350.258C189.042 350.175 188.736 349.818 188.404 349.587C188.739 349.409 189.063 349.109 189.413 349.073C190.969 348.922 192.53 348.848 194.088 348.747C194.088 348.774 194.088 348.797 194.091 348.824L194.094 348.821Z" fill="#2C2B33"/>
<rect x="44" y="403" width="247" height="18" fill="#2C2B33"/>
</g>
<defs>
<clipPath id="clip0_147_127">
<rect width="291.621" height="431.297" fill="white" transform="translate(40)"/>
</clipPath>
</defs>
</svg>
