<svg width="41" height="40" viewBox="0 0 41 40" fill="none" xmlns="http://www.w3.org/2000/svg">
<g clip-path="url(#clip0_147_321)">
<path fill-rule="evenodd" clip-rule="evenodd" d="M20.3649 0.827148C15.6525 0.829593 11.0945 2.49865 7.50612 5.53588C3.91772 8.57311 1.53284 12.7805 0.777932 17.4056C0.0230212 22.0307 0.947294 26.7721 3.3855 30.7818C5.82371 34.7915 9.61684 37.8082 14.0867 39.2923C15.0728 39.4754 15.4442 38.8642 15.4442 38.3445C15.4442 37.8249 15.4245 36.3181 15.4179 34.6709C9.89567 35.8638 8.72877 32.3406 8.72877 32.3406C7.82812 30.0527 6.52645 29.4513 6.52645 29.4513C4.72515 28.229 6.66123 28.2519 6.66123 28.2519C8.65647 28.3924 9.70504 30.288 9.70504 30.288C11.4735 33.3047 14.3496 32.4321 15.4804 31.9222C15.6579 30.6443 16.1739 29.7749 16.7426 29.2814C12.3314 28.7846 7.69664 27.0916 7.69664 19.5286C7.6693 17.5672 8.4013 15.6704 9.74119 14.2306C9.53739 13.7339 8.85696 11.7271 9.93511 9.00129C9.93511 9.00129 11.6017 8.47182 15.3949 11.0244C18.6485 10.1397 22.0813 10.1397 25.3349 11.0244C29.1249 8.47182 30.7881 9.00129 30.7881 9.00129C31.8696 11.7206 31.1892 13.7273 30.9854 14.2306C32.3295 15.6707 33.063 17.5708 33.0332 19.5352C33.0332 27.1145 28.3886 28.7846 23.9708 29.2716C24.6808 29.886 25.3152 31.0855 25.3152 32.9289C25.3152 35.5697 25.2922 37.6941 25.2922 38.3445C25.2922 38.8707 25.6505 39.4852 26.6563 39.2923C31.1267 37.808 34.9202 34.7908 37.3583 30.7804C39.7965 26.77 40.7203 22.0279 39.9645 17.4024C39.2087 12.7768 36.8227 8.56942 33.2331 5.53271C29.6435 2.496 25.0845 0.828044 20.3715 0.827148H20.3649Z" fill="#408A67"/>
<path d="M13.7937 33.0433C13.7937 33.2034 13.6097 33.3407 13.373 33.344C13.1363 33.3472 12.9424 33.2165 12.9424 33.0564C12.9424 32.8962 13.1264 32.7589 13.3631 32.7557C13.5998 32.7524 13.7937 32.8799 13.7937 33.0433Z" fill="#408A67"/>
<path d="M15.3057 32.7915C15.3353 32.9517 15.171 33.1184 14.9343 33.1576C14.6976 33.1968 14.4906 33.102 14.461 32.9452C14.4314 32.7883 14.6023 32.6183 14.8324 32.5758C15.0625 32.5334 15.2762 32.6314 15.3057 32.7915Z" fill="#408A67"/>
<path d="M12.1699 32.932C12.1206 33.0856 11.897 33.1543 11.6735 33.0889C11.45 33.0235 11.3021 32.8405 11.3448 32.6836C11.3875 32.5267 11.6144 32.4548 11.8412 32.5267C12.068 32.5986 12.2126 32.7719 12.1699 32.932Z" fill="#408A67"/>
<path d="M10.6809 32.2916C10.5724 32.4125 10.3522 32.3798 10.1714 32.2164C9.99063 32.053 9.94788 31.8307 10.0564 31.7131C10.1648 31.5954 10.3851 31.6281 10.5724 31.7882C10.7598 31.9484 10.7959 32.1739 10.6809 32.2916Z" fill="#408A67"/>
<path d="M9.61919 31.1933C9.49756 31.2783 9.29047 31.1933 9.17542 31.0234C9.14361 30.9929 9.11831 30.9563 9.10103 30.9159C9.08375 30.8755 9.07483 30.832 9.07483 30.7881C9.07483 30.7441 9.08375 30.7006 9.10103 30.6602C9.11831 30.6198 9.14361 30.5832 9.17542 30.5527C9.29704 30.471 9.50414 30.5527 9.61919 30.7194C9.73423 30.8861 9.73752 31.1084 9.61919 31.1933Z" fill="#408A67"/>
<path d="M8.83684 30.0593C8.76877 30.0934 8.69089 30.1029 8.61654 30.0862C8.54218 30.0695 8.47598 30.0276 8.42925 29.9678C8.30106 29.8305 8.27475 29.6409 8.37336 29.5559C8.47197 29.471 8.64948 29.5102 8.77768 29.6475C8.90587 29.7847 8.93545 29.9743 8.83684 30.0593Z" fill="#408A67"/>
<path d="M8.03144 29.167C7.98871 29.265 7.83093 29.2944 7.70274 29.2258C7.57454 29.1572 7.47923 29.0297 7.52524 28.9284C7.57126 28.8271 7.72575 28.8009 7.85395 28.8696C7.98214 28.9382 8.08075 29.0689 8.03144 29.167Z" fill="#408A67"/>
</g>
<defs>
<clipPath id="clip0_147_321">
<rect width="39.7009" height="39.7009" fill="white" transform="translate(0.514038)"/>
</clipPath>
</defs>
</svg>
