<svg width="40" height="40" viewBox="0 0 40 40" fill="none" xmlns="http://www.w3.org/2000/svg">
<g clip-path="url(#clip0_147_320)">
<path d="M36.7621 0H2.93105C1.31044 0 0 1.27942 0 2.86126V36.8319C0 38.4138 1.31044 39.7009 2.93105 39.7009H36.7621C38.3827 39.7009 39.7009 38.4138 39.7009 36.8397V2.86126C39.7009 1.27942 38.3827 0 36.7621 0ZM11.7785 33.8311H5.88535V14.8801H11.7785V33.8311ZM8.83191 12.298C6.93991 12.298 5.41235 10.7704 5.41235 8.88619C5.41235 7.00194 6.93991 5.47439 8.83191 5.47439C10.7162 5.47439 12.2437 7.00194 12.2437 8.88619C12.2437 10.7627 10.7162 12.298 8.83191 12.298ZM33.8311 33.8311H27.9457V24.6192C27.9457 22.4248 27.907 19.5946 24.8829 19.5946C21.82 19.5946 21.3548 21.9906 21.3548 24.4642V33.8311H15.4772V14.8801H21.1221V17.47H21.1997C21.9828 15.9812 23.9059 14.4071 26.7671 14.4071C32.73 14.4071 33.8311 18.3307 33.8311 23.4329V33.8311Z" fill="#408A67"/>
</g>
<defs>
<clipPath id="clip0_147_320">
<rect width="39.7009" height="39.7009" fill="white"/>
</clipPath>
</defs>
</svg>
