<svg width="48" height="35" viewBox="0 0 48 35" fill="none" xmlns="http://www.w3.org/2000/svg">
<path fill-rule="evenodd" clip-rule="evenodd" d="M2.58806 0.876587C1.17422 0.876587 0.0280762 2.02273 0.0280762 3.43658V5.593L23.9294 23.6377C24.2321 23.8662 24.6507 23.862 24.9487 23.6274L47.9875 5.4916C47.9917 5.48833 47.9959 5.4851 48 5.48189V3.43658C48 2.02273 46.8539 0.876587 45.44 0.876587H2.58806ZM48 8.73976L35.2014 18.8146C37.5838 20.9983 40.8063 23.9608 43.5896 26.5382C45.1452 27.9787 46.5658 29.301 47.6264 30.3003C47.7563 30.4227 47.881 30.5405 48 30.6532V8.73976ZM47.524 33.7515C47.455 33.6818 47.3339 33.5605 47.1433 33.3755C46.8302 33.0716 46.3975 32.6598 45.8708 32.1635C44.8183 31.1718 43.4042 29.8555 41.8502 28.4165C38.9491 25.73 35.5684 22.623 33.1632 20.4191L26.5322 25.6389C25.3203 26.5929 23.6178 26.6101 22.3869 25.6808L15.267 20.3055C12.8549 22.5153 9.4073 25.6835 6.45596 28.4165C4.90201 29.8555 3.48784 31.1718 2.4354 32.1635C1.9087 32.6598 1.47601 33.0716 1.16287 33.3755C0.931496 33.6001 0.802657 33.7307 0.744888 33.7892L0.744812 33.7893L0.744787 33.7893L0.744707 33.7894C0.713346 33.8212 0.703028 33.8317 0.708681 33.8243C0.684179 33.8562 0.658469 33.8866 0.631672 33.9155C1.10127 34.4713 1.80345 34.8243 2.58807 34.8243H45.44C46.2993 34.8243 47.0597 34.401 47.524 33.7515ZM0.0280762 30.9169C0.226523 30.7282 0.444645 30.5219 0.67979 30.3003C1.74039 29.301 3.16099 27.9787 4.71659 26.5382C7.53298 23.9301 10.7991 20.9277 13.1894 18.737L0.0280762 8.80063V30.9169Z" fill="#408A67"/>
</svg>
